<svg width="270" height="73" viewBox="0 0 270 73" fill="none" xmlns="http://www.w3.org/2000/svg">
<g clip-path="url(#clip0_28_34)">
<g clip-path="url(#clip1_28_34)">
<g clip-path="url(#clip2_28_34)">
<g clip-path="url(#clip3_28_34)">
<g clip-path="url(#clip4_28_34)">
<path d="M268.01 41.4656H116.941C116.09 41.4656 115.4 41.9576 115.4 42.5645C115.4 43.1714 116.09 43.6634 116.941 43.6634H268.01C268.861 43.6634 269.551 43.1714 269.551 42.5645C269.551 41.9576 268.861 41.4656 268.01 41.4656Z" fill="black"/>
<g clip-path="url(#clip5_28_34)">
<g clip-path="url(#clip6_28_34)">
<path d="M121.007 33.4306C119.957 33.4306 119.039 33.2696 118.251 32.9476C117.464 32.6289 116.857 32.2511 116.43 31.8141C116.004 31.3804 115.79 30.991 115.79 30.646C115.79 30.4818 115.836 30.3125 115.928 30.1384C116.017 29.9676 116.132 29.8197 116.273 29.6948C116.41 29.5733 116.553 29.5125 116.701 29.5125C116.898 29.5125 117.09 29.6111 117.277 29.8082C117.467 30.0053 117.706 30.2386 117.995 30.508C118.281 30.7808 118.653 31.0157 119.112 31.2128C119.572 31.41 120.171 31.5085 120.909 31.5085C121.598 31.5085 122.197 31.3985 122.705 31.1783C123.214 30.9549 123.613 30.6165 123.901 30.1631C124.187 29.7129 124.329 29.1429 124.329 28.4529C124.329 27.7465 124.182 27.1715 123.886 26.7279C123.591 26.2844 123.202 25.9147 122.72 25.619C122.234 25.3233 121.709 25.0605 121.145 24.8305C120.577 24.6005 120.003 24.3656 119.422 24.1257C118.838 23.8891 118.309 23.5934 117.833 23.2386C117.357 22.887 116.971 22.432 116.676 21.8734C116.381 21.3148 116.233 20.6084 116.233 19.7542C116.233 18.8506 116.397 18.1031 116.725 17.5117C117.054 16.9203 117.488 16.4521 118.03 16.1071C118.571 15.7621 119.158 15.519 119.792 15.3777C120.422 15.2397 121.04 15.1707 121.647 15.1707C122.09 15.1707 122.558 15.2036 123.05 15.2693C123.542 15.335 124.01 15.4336 124.452 15.565C124.895 15.6964 125.256 15.864 125.535 16.0677C125.814 16.2747 125.954 16.5178 125.954 16.7971C125.954 16.9285 125.921 17.0797 125.855 17.2505C125.79 17.4247 125.691 17.5807 125.56 17.7187C125.429 17.86 125.265 17.9306 125.068 17.9306C124.887 17.9306 124.666 17.8518 124.403 17.6941C124.141 17.5397 123.793 17.3836 123.36 17.2259C122.923 17.0715 122.353 16.9942 121.647 16.9942C121.056 16.9942 120.504 17.0764 119.988 17.2407C119.47 17.4049 119.06 17.676 118.758 18.0539C118.453 18.4317 118.3 18.9328 118.3 19.557C118.3 20.1484 118.448 20.6331 118.743 21.0109C119.039 21.3888 119.424 21.7009 119.9 21.9473C120.376 22.1938 120.901 22.4188 121.475 22.6225C122.049 22.8295 122.623 23.0677 123.197 23.3372C123.772 23.6099 124.302 23.9434 124.787 24.3376C125.269 24.7319 125.658 25.2445 125.954 25.8753C126.249 26.5094 126.397 27.3029 126.397 28.2557C126.397 29.4386 126.164 30.4128 125.698 31.1783C125.228 31.9406 124.592 32.5057 123.788 32.8737C122.984 33.245 122.057 33.4306 121.007 33.4306ZM133.582 33.2335H132.819C131.49 33.2335 130.477 32.9378 129.778 32.3464C129.082 31.7549 128.734 30.8103 128.734 29.5125V16.8217C128.734 16.6082 128.841 16.4357 129.054 16.3043C129.268 16.1728 129.497 16.1071 129.743 16.1071C130.006 16.1071 130.244 16.1728 130.457 16.3043C130.67 16.4357 130.777 16.6082 130.777 16.8217V21.5531H133.878C134.074 21.5531 134.225 21.6352 134.33 21.7995C134.439 21.9638 134.493 22.1527 134.493 22.3662C134.493 22.5798 134.439 22.7638 134.33 22.9182C134.225 23.0759 134.074 23.1548 133.878 23.1548H130.777V29.5125C130.777 30.2189 130.928 30.715 131.23 31.0009C131.535 31.29 132.065 31.4346 132.819 31.4346H133.582C133.878 31.4346 134.099 31.5249 134.247 31.7057C134.394 31.8864 134.468 32.0917 134.468 32.3217C134.468 32.5517 134.394 32.7603 134.247 32.9476C134.099 33.1382 133.878 33.2335 133.582 33.2335ZM141.211 33.4306C140.144 33.4306 139.201 33.2285 138.381 32.8244C137.561 32.4236 136.911 31.865 136.432 31.1487C135.956 30.4358 135.718 29.6029 135.718 28.65V26.0626C135.718 25.2247 135.945 24.4526 136.397 23.7462C136.847 23.0398 137.441 22.473 138.179 22.0459C138.917 21.6188 139.729 21.4052 140.615 21.4052C141.472 21.4052 142.256 21.6023 142.968 21.9966C143.683 22.3909 144.257 22.9248 144.69 23.5984C145.127 24.2719 145.345 25.0523 145.345 25.9394C145.345 26.5965 145.238 27.068 145.025 27.3538C144.809 27.643 144.536 27.8204 144.208 27.8861C143.88 27.9518 143.537 27.9847 143.18 27.9847H137.766V28.7239C137.766 29.6439 138.094 30.37 138.75 30.9023C139.406 31.4379 140.251 31.7057 141.285 31.7057C141.892 31.7057 142.374 31.6235 142.732 31.4592C143.096 31.295 143.393 31.134 143.622 30.9762C143.849 30.8218 144.054 30.7446 144.238 30.7446C144.418 30.7446 144.569 30.7972 144.69 30.9023C144.815 31.0107 144.91 31.1389 144.976 31.2867C145.038 31.4346 145.069 31.566 145.069 31.681C145.069 31.8946 144.915 32.1361 144.607 32.4055C144.295 32.6782 143.847 32.9164 143.263 33.1201C142.682 33.3271 141.998 33.4306 141.211 33.4306ZM137.766 25.7176V26.6047H142.318C142.758 26.6047 143.048 26.5505 143.189 26.4421C143.33 26.3369 143.401 26.1283 143.401 25.8162C143.401 25.3233 143.281 24.8683 143.042 24.451C142.805 24.0304 142.472 23.6887 142.043 23.4259C141.619 23.163 141.137 23.0316 140.596 23.0316C140.084 23.0316 139.616 23.1499 139.193 23.3864C138.763 23.6263 138.417 23.9516 138.154 24.3623C137.895 24.773 137.766 25.2247 137.766 25.7176ZM151.861 38.8766C150.893 38.8766 150.024 38.7418 149.253 38.4724C148.482 38.1997 147.872 37.8136 147.422 37.3142C146.969 36.8115 146.743 36.2234 146.743 35.5498C146.743 34.8599 146.945 34.298 147.348 33.8643C147.749 33.4273 148.211 33.0938 148.736 32.8638C148.375 32.7324 148.077 32.5386 147.84 32.2823C147.601 32.0293 147.481 31.6728 147.481 31.2128C147.481 30.7528 147.596 30.3865 147.826 30.1138C148.055 29.8443 148.351 29.6029 148.712 29.3893C148.269 29.0279 147.924 28.5794 147.678 28.0438C147.432 27.5115 147.309 26.9251 147.309 26.2844V25.4712C147.309 24.6662 147.489 23.9598 147.85 23.3519C148.211 22.7441 148.725 22.2677 149.391 21.9227C150.053 21.5777 150.828 21.4052 151.714 21.4052C152.288 21.4052 152.818 21.4906 153.303 21.6615C153.786 21.8356 154.207 22.0705 154.568 22.3662C154.831 21.8241 155.106 21.4216 155.395 21.1588C155.681 20.8959 155.963 20.7645 156.242 20.7645C156.537 20.7645 156.758 20.8466 156.906 21.0109C157.054 21.1752 157.128 21.3477 157.128 21.5284C157.128 21.6598 157.087 21.7748 157.005 21.8734C156.923 21.972 156.824 22.0459 156.709 22.0952C156.529 22.1445 156.32 22.243 156.084 22.3909C155.845 22.5387 155.618 22.7852 155.405 23.1302C155.651 23.4423 155.836 23.8004 155.961 24.2046C156.083 24.6054 156.143 25.0276 156.143 25.4712V26.2844C156.143 27.0565 155.955 27.7547 155.577 28.379C155.2 29.0032 154.675 29.4911 154.002 29.8427C153.33 30.1976 152.559 30.375 151.689 30.375C151.017 30.375 150.418 30.2518 149.893 30.0053C149.729 30.1039 149.581 30.214 149.45 30.3355C149.319 30.4604 149.253 30.6296 149.253 30.8432C149.253 31.1882 149.438 31.4346 149.809 31.5824C150.177 31.7303 150.647 31.8371 151.222 31.9028C151.796 31.9685 152.403 32.0424 153.043 32.1246C153.682 32.2067 154.289 32.3496 154.864 32.5534C155.438 32.7603 155.91 33.0774 156.281 33.5045C156.649 33.9317 156.832 34.5231 156.832 35.2788C156.832 36.0838 156.611 36.7524 156.168 37.2847C155.725 37.8202 155.131 38.2194 154.386 38.4823C153.638 38.7451 152.797 38.8766 151.861 38.8766ZM151.812 37.4473C152.747 37.4473 153.486 37.2551 154.027 36.8707C154.568 36.483 154.839 35.9688 154.839 35.3281C154.839 34.8681 154.7 34.5116 154.421 34.2586C154.142 34.0023 153.781 33.8134 153.338 33.6918C152.895 33.567 152.432 33.4848 151.95 33.4454C151.464 33.4027 151.025 33.3567 150.631 33.3074C150.106 33.4717 149.652 33.7181 149.268 34.0467C148.88 34.3752 148.687 34.8024 148.687 35.3281C148.687 35.9688 148.974 36.483 149.548 36.8707C150.122 37.2551 150.877 37.4473 151.812 37.4473ZM151.738 28.9704C152.493 28.9704 153.084 28.7157 153.51 28.2065C153.937 27.6972 154.15 27.0565 154.15 26.2844V25.4712C154.15 24.7155 153.937 24.083 153.51 23.5737C153.084 23.0644 152.485 22.8098 151.714 22.8098C150.943 22.8098 150.349 23.0644 149.932 23.5737C149.512 24.083 149.302 24.7155 149.302 25.4712V26.2597C149.302 27.0318 149.515 27.6758 149.942 28.1917C150.368 28.7108 150.967 28.9704 151.738 28.9704ZM161.459 33.4306C160.54 33.4306 159.757 33.1628 159.111 32.6273C158.461 32.095 158.137 31.2703 158.137 30.1532C158.137 29.2496 158.383 28.5465 158.875 28.0438C159.367 27.5444 160.045 27.1994 160.907 27.0088C161.767 26.8216 162.763 26.7279 163.895 26.7279H165.076V26.2104C165.076 25.7176 164.986 25.2362 164.805 24.7664C164.625 24.2998 164.343 23.9138 163.959 23.6082C163.572 23.3059 163.042 23.1548 162.369 23.1548C161.795 23.1548 161.341 23.2123 161.006 23.3273C160.668 23.4423 160.401 23.5606 160.204 23.6821C160.007 23.807 159.835 23.8694 159.687 23.8694C159.441 23.8694 159.252 23.7495 159.121 23.5096C158.99 23.2731 158.924 23.048 158.924 22.8344C158.924 22.5716 159.104 22.3334 159.465 22.1198C159.826 21.9063 160.278 21.7338 160.819 21.6023C161.36 21.4709 161.893 21.4052 162.418 21.4052C163.567 21.4052 164.486 21.6352 165.175 22.0952C165.864 22.5552 166.361 23.1466 166.666 23.8694C166.968 24.5923 167.119 25.3644 167.119 26.1858V32.4942C167.119 32.6913 167.025 32.8638 166.838 33.0117C166.648 33.1595 166.405 33.2335 166.11 33.2335C165.847 33.2335 165.626 33.1595 165.445 33.0117C165.265 32.8638 165.175 32.6913 165.175 32.4942V31.5085C164.748 32.0014 164.231 32.4449 163.624 32.8392C163.017 33.2335 162.295 33.4306 161.459 33.4306ZM162.099 31.7796C162.574 31.7796 163.039 31.6482 163.491 31.3853C163.941 31.1225 164.318 30.7939 164.623 30.3996C164.925 30.0053 165.076 29.6275 165.076 29.2661V27.9847H164.215C163.526 27.9847 162.875 28.0257 162.261 28.1079C161.644 28.19 161.147 28.3658 160.77 28.6352C160.392 28.9079 160.204 29.34 160.204 29.9314C160.204 30.5721 160.384 31.0403 160.745 31.336C161.106 31.6317 161.557 31.7796 162.099 31.7796ZM170.908 33.2335C170.613 33.2335 170.37 33.1546 170.18 32.9969C169.993 32.8425 169.899 32.6749 169.899 32.4942V22.2677C169.899 22.0541 169.993 21.8816 170.18 21.7502C170.37 21.6188 170.613 21.5531 170.908 21.5531C171.171 21.5531 171.392 21.6188 171.573 21.7502C171.753 21.8816 171.843 22.0541 171.843 22.2677V23.278C172.106 22.8016 172.516 22.3695 173.074 21.9818C173.632 21.5974 174.321 21.4052 175.141 21.4052C175.929 21.4052 176.65 21.6221 177.307 22.0558C177.963 22.4927 178.488 23.0644 178.882 23.7709C179.275 24.4773 179.472 25.2658 179.472 26.1365V32.4942C179.472 32.7406 179.365 32.9246 179.152 33.0462C178.939 33.171 178.701 33.2335 178.439 33.2335C178.192 33.2335 177.963 33.171 177.75 33.0462C177.536 32.9246 177.43 32.7406 177.43 32.4942V26.1365C177.43 25.6601 177.302 25.2001 177.046 24.7565C176.793 24.313 176.453 23.9516 176.027 23.6723C175.6 23.393 175.133 23.2534 174.624 23.2534C174.181 23.2534 173.755 23.3716 173.345 23.6082C172.934 23.8481 172.598 24.1766 172.336 24.5939C172.073 25.0145 171.942 25.5287 171.942 26.1365V32.4942C171.942 32.6749 171.839 32.8425 171.632 32.9969C171.428 33.1546 171.187 33.2335 170.908 33.2335ZM186.658 33.4306C185.788 33.4306 184.984 33.2039 184.246 32.7505C183.508 32.3004 182.917 31.7139 182.474 30.991C182.031 30.2682 181.81 29.4879 181.81 28.65V26.1365C181.81 25.2987 182.026 24.5216 182.46 23.8054C182.896 23.0924 183.483 22.5141 184.222 22.0705C184.96 21.627 185.772 21.4052 186.658 21.4052C187.527 21.4052 188.331 21.6221 189.069 22.0558C189.808 22.4927 190.402 23.0644 190.851 23.7709C191.304 24.4773 191.53 25.2658 191.53 26.1365V28.65C191.53 29.4714 191.304 30.2468 190.851 30.9762C190.402 31.7089 189.808 32.3004 189.069 32.7505C188.331 33.2039 187.527 33.4306 186.658 33.4306ZM186.658 31.5824C187.183 31.5824 187.654 31.4428 188.07 31.1635C188.49 30.8842 188.832 30.5179 189.094 30.0645C189.357 29.6144 189.488 29.1429 189.488 28.65V26.1365C189.488 25.6601 189.36 25.2001 189.104 24.7565C188.851 24.313 188.512 23.9516 188.085 23.6723C187.659 23.393 187.183 23.2534 186.658 23.2534C186.133 23.2534 185.657 23.393 185.231 23.6723C184.804 23.9516 184.468 24.313 184.222 24.7565C183.975 25.2001 183.852 25.6601 183.852 26.1365V28.65C183.852 29.1429 183.975 29.6144 184.222 30.0645C184.468 30.5179 184.804 30.8842 185.231 31.1635C185.657 31.4428 186.133 31.5824 186.658 31.5824ZM199.4 33.3813C198.399 33.3813 197.502 33.2039 196.708 32.8491C195.911 32.4975 195.279 31.9274 194.813 31.1389C194.344 30.3503 194.109 29.3071 194.109 28.0093V20.592C194.109 19.2942 194.344 18.251 194.813 17.4624C195.279 16.6739 195.911 16.1022 196.708 15.7473C197.502 15.3958 198.383 15.22 199.351 15.22C200.434 15.22 201.374 15.404 202.171 15.772C202.965 16.1433 203.588 16.6575 204.041 17.3146C204.491 17.9717 204.716 18.7438 204.716 19.631C204.716 20.0252 204.625 20.2914 204.445 20.4294C204.264 20.5706 204.01 20.6413 203.682 20.6413C203.403 20.6413 203.165 20.5871 202.968 20.4787C202.771 20.3735 202.665 20.1895 202.648 19.9267C202.583 19.3517 202.435 18.8539 202.205 18.4333C201.976 18.0161 201.631 17.6891 201.172 17.4526C200.713 17.2127 200.122 17.0928 199.4 17.0928C198.383 17.0928 197.592 17.3754 197.028 17.9405C196.46 18.5089 196.176 19.3927 196.176 20.592V28.0093C196.176 29.2086 196.46 30.0908 197.028 30.6559C197.592 31.2243 198.383 31.5085 199.4 31.5085C200.417 31.5085 201.213 31.2243 201.787 30.6559C202.361 30.0908 202.648 29.2086 202.648 28.0093V25.4958H199.72C199.49 25.4958 199.315 25.4055 199.193 25.2247C199.069 25.044 199.006 24.8469 199.006 24.6333C199.006 24.4198 199.069 24.2226 199.193 24.0419C199.315 23.8612 199.49 23.7709 199.72 23.7709H204.002C204.232 23.7709 204.409 23.8448 204.533 23.9926C204.655 24.1405 204.716 24.3212 204.716 24.5348V28.0093C204.716 29.3071 204.483 30.3503 204.017 31.1389C203.547 31.9274 202.911 32.4975 202.107 32.8491C201.303 33.2039 200.401 33.3813 199.4 33.3813ZM208.382 33.2335C208.103 33.2335 207.87 33.1546 207.683 32.9969C207.493 32.8425 207.398 32.6749 207.398 32.4942V22.2677C207.398 22.0541 207.493 21.8816 207.683 21.7502C207.87 21.6188 208.103 21.5531 208.382 21.5531C208.661 21.5531 208.891 21.6188 209.071 21.7502C209.252 21.8816 209.342 22.0541 209.342 22.2677V23.4259C209.522 23.0809 209.768 22.7556 210.08 22.45C210.392 22.1478 210.758 21.898 211.178 21.7009C211.594 21.5038 212.057 21.4052 212.566 21.4052H213.402C213.616 21.4052 213.801 21.4956 213.958 21.6763C214.113 21.857 214.19 22.0788 214.19 22.3416C214.19 22.588 214.113 22.8016 213.958 22.9823C213.801 23.163 213.616 23.2534 213.402 23.2534H212.566C212.041 23.2534 211.54 23.4012 211.064 23.6969C210.589 23.9926 210.2 24.4083 209.898 24.9438C209.593 25.4761 209.44 26.1201 209.44 26.8758V32.4942C209.44 32.6749 209.339 32.8425 209.135 32.9969C208.928 33.1546 208.677 33.2335 208.382 33.2335ZM217.955 33.4306C217.036 33.4306 216.252 33.1628 215.602 32.6273C214.956 32.095 214.633 31.2703 214.633 30.1532C214.633 29.2496 214.879 28.5465 215.371 28.0438C215.863 27.5444 216.539 27.1994 217.399 27.0088C218.262 26.8216 219.259 26.7279 220.391 26.7279H221.572V26.2104C221.572 25.7176 221.482 25.2362 221.302 24.7664C221.121 24.2998 220.837 23.9138 220.45 23.6082C220.066 23.3059 219.538 23.1548 218.865 23.1548C218.291 23.1548 217.835 23.2123 217.497 23.3273C217.162 23.4423 216.897 23.5606 216.7 23.6821C216.503 23.807 216.331 23.8694 216.183 23.8694C215.937 23.8694 215.748 23.7495 215.617 23.5096C215.486 23.2731 215.42 23.048 215.42 22.8344C215.42 22.5716 215.601 22.3334 215.962 22.1198C216.323 21.9063 216.774 21.7338 217.315 21.6023C217.856 21.4709 218.39 21.4052 218.915 21.4052C220.063 21.4052 220.982 21.6352 221.671 22.0952C222.36 22.5552 222.855 23.1466 223.157 23.8694C223.462 24.5923 223.615 25.3644 223.615 26.1858V32.4942C223.615 32.6913 223.52 32.8638 223.329 33.0117C223.142 33.1595 222.901 33.2335 222.606 33.2335C222.343 33.2335 222.122 33.1595 221.941 33.0117C221.761 32.8638 221.671 32.6913 221.671 32.4942V31.5085C221.244 32.0014 220.727 32.4449 220.12 32.8392C219.513 33.2335 218.792 33.4306 217.955 33.4306ZM218.595 31.7796C219.07 31.7796 219.533 31.6482 219.983 31.3853C220.435 31.1225 220.813 30.7939 221.115 30.3996C221.42 30.0053 221.572 29.6275 221.572 29.2661V27.9847H220.711C220.022 27.9847 219.369 28.0257 218.752 28.1079C218.139 28.19 217.643 28.3658 217.266 28.6352C216.889 28.9079 216.7 29.34 216.7 29.9314C216.7 30.5721 216.88 31.0403 217.241 31.336C217.602 31.6317 218.053 31.7796 218.595 31.7796ZM227.405 38.8766C227.126 38.8766 226.891 38.7993 226.701 38.6449C226.514 38.4872 226.42 38.318 226.42 38.1373V22.2677C226.42 22.0541 226.514 21.8816 226.701 21.7502C226.891 21.6188 227.126 21.5531 227.405 21.5531C227.683 21.5531 227.913 21.6188 228.094 21.7502C228.274 21.8816 228.364 22.0541 228.364 22.2677V23.278C228.643 22.8016 229.062 22.3695 229.619 21.9818C230.177 21.5974 230.858 21.4052 231.662 21.4052C232.482 21.4052 233.229 21.6221 233.901 22.0558C234.574 22.4927 235.107 23.0644 235.501 23.7709C235.894 24.4773 236.091 25.2658 236.091 26.1365V28.65C236.091 29.4714 235.89 30.2468 235.486 30.9762C235.086 31.7089 234.557 32.3004 233.901 32.7505C233.245 33.2039 232.523 33.4306 231.736 33.4306C230.997 33.4306 230.333 33.2368 229.742 32.8491C229.152 32.4646 228.725 32.0178 228.463 31.5085V38.1373C228.463 38.318 228.359 38.4872 228.153 38.6449C227.949 38.7993 227.7 38.8766 227.405 38.8766ZM231.243 31.5824C231.736 31.5824 232.195 31.4428 232.622 31.1635C233.048 30.8842 233.393 30.5146 233.655 30.0546C233.918 29.5946 234.049 29.1264 234.049 28.65V26.1365C234.049 25.6601 233.918 25.2001 233.655 24.7565C233.393 24.313 233.048 23.9516 232.622 23.6723C232.195 23.393 231.719 23.2534 231.194 23.2534C230.751 23.2534 230.32 23.3716 229.9 23.6082C229.483 23.8481 229.139 24.1766 228.866 24.5939C228.597 25.0145 228.463 25.5287 228.463 26.1365V29.3154C228.463 29.5289 228.581 29.8164 228.817 30.1778C229.057 30.5393 229.385 30.8629 229.801 31.1487C230.221 31.4379 230.702 31.5824 231.243 31.5824ZM239.581 33.2335C239.286 33.2335 239.044 33.1546 238.857 32.9969C238.667 32.8425 238.572 32.6749 238.572 32.4942V15.22C238.572 15.0064 238.667 14.8339 238.857 14.7025C239.044 14.5711 239.286 14.5054 239.581 14.5054C239.86 14.5054 240.103 14.5711 240.309 14.7025C240.513 14.8339 240.614 15.0064 240.614 15.22V23.278C240.877 22.8016 241.276 22.3695 241.81 21.9818C242.342 21.5974 243.01 21.4052 243.813 21.4052C244.601 21.4052 245.323 21.6221 245.979 22.0558C246.635 22.4927 247.16 23.0644 247.554 23.7709C247.948 24.4773 248.145 25.2658 248.145 26.1365V32.4942C248.145 32.7406 248.038 32.9246 247.825 33.0462C247.611 33.171 247.374 33.2335 247.111 33.2335C246.865 33.2335 246.635 33.171 246.422 33.0462C246.209 32.9246 246.102 32.7406 246.102 32.4942V26.1365C246.102 25.6601 245.971 25.2001 245.708 24.7565C245.446 24.313 245.106 23.9516 244.69 23.6723C244.27 23.393 243.805 23.2534 243.297 23.2534C242.854 23.2534 242.427 23.3716 242.017 23.6082C241.607 23.8481 241.271 24.1766 241.008 24.5939C240.746 25.0145 240.614 25.5287 240.614 26.1365V32.4942C240.614 32.6749 240.513 32.8425 240.309 32.9969C240.103 33.1546 239.86 33.2335 239.581 33.2335ZM255.97 33.4306C254.904 33.4306 253.96 33.2285 253.14 32.8244C252.32 32.4236 251.672 31.865 251.196 31.1487C250.72 30.4358 250.482 29.6029 250.482 28.65V26.0626C250.482 25.2247 250.707 24.4526 251.157 23.7462C251.609 23.0398 252.205 22.473 252.943 22.0459C253.681 21.6188 254.494 21.4052 255.379 21.4052C256.233 21.4052 257.015 21.6023 257.727 21.9966C258.442 22.3909 259.017 22.9248 259.45 23.5984C259.886 24.2719 260.104 25.0523 260.104 25.9394C260.104 26.5965 259.998 27.068 259.784 27.3538C259.571 27.643 259.3 27.8204 258.972 27.8861C258.644 27.9518 258.3 27.9847 257.939 27.9847H252.525V28.7239C252.525 29.6439 252.853 30.37 253.509 30.9023C254.165 31.4379 255.01 31.7057 256.044 31.7057C256.651 31.7057 257.135 31.6235 257.496 31.4592C257.857 31.295 258.152 31.134 258.382 30.9762C258.611 30.8218 258.816 30.7446 258.997 30.7446C259.177 30.7446 259.328 30.7972 259.45 30.9023C259.574 31.0107 259.67 31.1389 259.735 31.2867C259.801 31.4346 259.834 31.566 259.834 31.681C259.834 31.8946 259.678 32.1361 259.366 32.4055C259.054 32.6782 258.606 32.9164 258.022 33.1201C257.442 33.3271 256.758 33.4306 255.97 33.4306ZM252.525 25.7176V26.6047H257.077C257.52 26.6047 257.812 26.5505 257.954 26.4421C258.091 26.3369 258.16 26.1283 258.16 25.8162C258.16 25.3233 258.04 24.8683 257.801 24.451C257.565 24.0304 257.233 23.6887 256.807 23.4259C256.38 23.163 255.896 23.0316 255.355 23.0316C254.846 23.0316 254.379 23.1499 253.952 23.3864C253.526 23.6263 253.181 23.9516 252.919 24.3623C252.656 24.773 252.525 25.2247 252.525 25.7176ZM263.353 33.2335C263.074 33.2335 262.839 33.1546 262.649 32.9969C262.462 32.8425 262.368 32.6749 262.368 32.4942V22.2677C262.368 22.0541 262.462 21.8816 262.649 21.7502C262.839 21.6188 263.074 21.5531 263.353 21.5531C263.632 21.5531 263.861 21.6188 264.042 21.7502C264.222 21.8816 264.312 22.0541 264.312 22.2677V23.4259C264.493 23.0809 264.739 22.7556 265.051 22.45C265.362 22.1478 265.727 21.898 266.143 21.7009C266.563 21.5038 267.027 21.4052 267.536 21.4052H268.373C268.586 21.4052 268.77 21.4956 268.924 21.6763C269.081 21.857 269.16 22.0788 269.16 22.3416C269.16 22.588 269.081 22.8016 268.924 22.9823C268.77 23.163 268.586 23.2534 268.373 23.2534H267.536C267.011 23.2534 266.511 23.4012 266.035 23.6969C265.559 23.9926 265.169 24.4083 264.864 24.9438C264.562 25.4761 264.411 26.1201 264.411 26.8758V32.4942C264.411 32.6749 264.307 32.8425 264.101 32.9969C263.897 33.1546 263.648 33.2335 263.353 33.2335Z" fill="black"/>
</g>
</g>
</g>
</g>
<g clip-path="url(#clip7_28_34)">
<g clip-path="url(#clip8_28_34)">
<path d="M31.1186 51.3072C34.4486 51.3066 37.7028 50.3111 40.4646 48.4481C43.2265 46.5852 45.3706 43.9395 46.6225 40.8495H51.2727C51.4396 40.8502 51.605 40.8177 51.7593 40.7539C51.9136 40.6901 52.0537 40.5962 52.1715 40.4777L55.1023 37.5429C55.1468 37.4974 55.2 37.4612 55.2588 37.4365C55.3175 37.4118 55.3805 37.3991 55.4442 37.3991C55.5079 37.3991 55.5709 37.4118 55.6296 37.4365C55.6884 37.4612 55.7415 37.4974 55.7861 37.5429L58.3848 40.1451C58.696 40.4558 59.1176 40.6302 59.5571 40.6302C59.9965 40.6302 60.4181 40.4558 60.7294 40.1451L63.328 37.5429C63.3726 37.4974 63.4258 37.4612 63.4845 37.4365C63.5432 37.4118 63.6063 37.3991 63.67 37.3991C63.7336 37.3991 63.7967 37.4118 63.8554 37.4365C63.9141 37.4612 63.9673 37.4974 64.0119 37.5429L66.6105 40.1451C66.9218 40.4558 67.3434 40.6302 67.7828 40.6302C68.2223 40.6302 68.6439 40.4558 68.9552 40.1451L71.5538 37.5429C71.5984 37.4974 71.6516 37.4612 71.7103 37.4365C71.769 37.4118 71.832 37.3991 71.8957 37.3991C71.9594 37.3991 72.0224 37.4118 72.0812 37.4365C72.1399 37.4612 72.1931 37.4974 72.2376 37.5429L75.1684 40.4777C75.4039 40.7147 75.7236 40.8484 76.0574 40.8495H79.9652C80.2504 40.8496 80.5242 40.7371 80.7272 40.5364L86.198 35.0581C86.3352 34.9206 86.4123 34.7341 86.4123 34.5396C86.4123 34.3452 86.3352 34.1587 86.198 34.0212L80.7272 28.5428C80.627 28.443 80.5081 28.364 80.3773 28.3103C80.2466 28.2566 80.1065 28.2292 79.9652 28.2298H46.6225C45.4781 25.4154 43.5911 22.9656 41.1633 21.1425C38.7355 19.3195 35.8584 18.1917 32.8399 17.88C29.8213 17.5683 26.775 18.0844 24.0267 19.373C21.2785 20.6616 18.932 22.6742 17.2381 25.1955C15.5443 27.7167 14.5669 30.6518 14.4106 33.6865C14.2544 36.7212 14.9251 39.7413 16.351 42.4237C17.7769 45.106 19.9043 47.3497 22.5055 48.9145C25.1068 50.4793 28.084 51.3064 31.1186 51.3072ZM23.4985 30.8809C24.2232 30.879 24.9321 31.093 25.5351 31.4956C26.1381 31.8982 26.6078 32.4712 26.8847 33.1419C27.1615 33.8125 27.233 34.5505 27.0899 35.2619C26.9468 35.9734 26.5957 36.6261 26.0812 37.1372C25.5667 37.6482 24.912 37.9946 24.2005 38.1321C23.4889 38.2696 22.7525 38.1921 22.0851 37.9095C21.4176 37.6268 20.8491 37.1518 20.4519 36.5448C20.0548 35.9377 19.8468 35.2262 19.8546 34.5005C19.8649 33.5386 20.253 32.6195 20.935 31.9421C21.617 31.2647 22.5379 30.8834 23.4985 30.8809ZM109.654 3.8806V52.0116C109.651 55.1854 108.54 58.2583 106.513 60.6985C104.487 63.1388 101.672 64.7929 98.5562 65.3748L52.1031 72.9759C51.5169 72.9782 50.9376 72.8484 50.4083 72.5961C49.879 72.3437 49.4132 71.9754 49.0453 71.5183C48.4641 70.7775 48.1569 69.858 48.1758 68.9161V49.4778C48.1758 49.1899 48.2901 48.9137 48.4934 48.71C48.6968 48.5064 48.9726 48.392 49.2602 48.392H54.9557C55.2433 48.392 55.5191 48.5064 55.7225 48.71C55.9259 48.9137 56.0401 49.1899 56.0401 49.4778V62.6943L84.7033 48.4898C85.3019 48.1919 85.9668 48.0527 86.6344 48.0856C87.302 48.1185 87.9501 48.3224 88.5166 48.6776C89.0831 49.0329 89.5491 49.5278 89.8701 50.1149C90.1911 50.702 90.3563 51.3618 90.35 52.0311C90.3535 52.8242 90.5216 53.608 90.8436 54.3326C91.1656 55.0572 91.6345 55.7068 92.2206 56.2404C92.8066 56.7739 93.497 57.1796 94.248 57.4317C94.9989 57.6839 95.794 57.777 96.5828 57.7051C98.0245 57.5357 99.3521 56.8366 100.309 55.7432C101.265 54.6499 101.783 53.24 101.761 51.7866V7.81326H56.0303V19.5525C56.0303 19.8405 55.9161 20.1167 55.7127 20.3204C55.5094 20.524 55.2336 20.6384 54.946 20.6384H49.2504C48.9628 20.6384 48.687 20.524 48.4837 20.3204C48.2803 20.1167 48.1661 19.8405 48.1661 19.5525V3.8806C48.1661 2.84279 48.5778 1.84748 49.3106 1.11363C50.0434 0.379787 51.0374 -0.0324828 52.0738 -0.0324828H105.727C106.242 -0.0350604 106.752 0.0642521 107.228 0.259749C107.705 0.455245 108.138 0.743073 108.503 1.10669C108.868 1.47031 109.157 1.90256 109.355 2.3786C109.552 2.85464 109.654 3.36508 109.654 3.8806Z" fill="black"/>
</g>
</g>
</g>
</g>
</g>
<defs>
<clipPath id="clip0_28_34">
<rect width="270" height="73" fill="white"/>
</clipPath>
<clipPath id="clip1_28_34">
<rect width="255.163" height="73.0085" fill="white" transform="translate(14.3884 -0.0325317)"/>
</clipPath>
<clipPath id="clip2_28_34">
<rect width="255.163" height="73.0085" fill="white" transform="translate(14.3884 -0.0325317)"/>
</clipPath>
<clipPath id="clip3_28_34">
<rect width="154.152" height="43.9327" fill="white" transform="translate(115.4 14.5054)"/>
</clipPath>
<clipPath id="clip4_28_34">
<rect width="154.152" height="43.9327" fill="white" transform="translate(115.4 14.5054)"/>
</clipPath>
<clipPath id="clip5_28_34">
<rect width="153.385" height="24.3712" fill="white" transform="translate(115.783 14.5054)"/>
</clipPath>
<clipPath id="clip6_28_34">
<rect width="153.385" height="24.3712" fill="white" transform="translate(115.783 14.5054)"/>
</clipPath>
<clipPath id="clip7_28_34">
<rect width="95.2657" height="73.0085" fill="white" transform="translate(14.3884 -0.0325317)"/>
</clipPath>
<clipPath id="clip8_28_34">
<rect width="95.2657" height="73.0085" fill="white" transform="translate(14.3884 -0.0325317)"/>
</clipPath>
</defs>
</svg>
