<svg width="377" height="102" viewBox="0 0 377 102" fill="none" xmlns="http://www.w3.org/2000/svg">
<g clip-path="url(#clip0_5_275)">
<g clip-path="url(#clip1_5_275)">
<g clip-path="url(#clip2_5_275)">
<g clip-path="url(#clip3_5_275)">
<g clip-path="url(#clip4_5_275)">
<path d="M374.221 57.9383H163.285C162.096 57.9383 161.132 58.6257 161.132 59.4737C161.132 60.3217 162.096 61.0092 163.285 61.0092H374.221C375.41 61.0092 376.374 60.3217 376.374 59.4737C376.374 58.6257 375.41 57.9383 374.221 57.9383Z" fill="white"/>
<g clip-path="url(#clip5_5_275)">
<g clip-path="url(#clip6_5_275)">
<path d="M168.962 46.7113C167.496 46.7113 166.214 46.4863 165.114 46.0364C164.015 45.5911 163.167 45.0632 162.571 44.4526C161.976 43.8466 161.678 43.3026 161.678 42.8205C161.678 42.591 161.742 42.3545 161.87 42.1112C161.994 41.8725 162.154 41.6659 162.351 41.4914C162.544 41.3216 162.743 41.2367 162.949 41.2367C163.224 41.2367 163.492 41.3744 163.753 41.6498C164.019 41.9253 164.354 42.2512 164.757 42.6277C165.155 43.0087 165.675 43.337 166.317 43.6124C166.958 43.8879 167.794 44.0256 168.825 44.0256C169.787 44.0256 170.623 43.8718 171.333 43.5642C172.043 43.2521 172.6 42.7792 173.003 42.1456C173.402 41.5167 173.601 40.7202 173.601 39.7561C173.601 38.7691 173.395 37.9656 172.983 37.3459C172.57 36.7261 172.027 36.2096 171.354 35.7965C170.676 35.3833 169.943 35.016 169.155 34.6946C168.362 34.3733 167.561 34.045 166.75 33.7099C165.934 33.3794 165.194 32.9662 164.53 32.4704C163.866 31.9791 163.327 31.3433 162.915 30.5628C162.503 29.7824 162.296 28.7954 162.296 27.6017C162.296 26.3392 162.526 25.2948 162.984 24.4685C163.442 23.6421 164.049 22.9879 164.805 22.5058C165.561 22.0238 166.381 21.6841 167.265 21.4867C168.145 21.2939 169.008 21.1974 169.856 21.1974C170.474 21.1974 171.127 21.2434 171.814 21.3352C172.502 21.427 173.154 21.5647 173.773 21.7484C174.391 21.932 174.895 22.1661 175.285 22.4508C175.674 22.74 175.869 23.0797 175.869 23.4699C175.869 23.6536 175.823 23.8647 175.732 24.1035C175.64 24.3468 175.502 24.5649 175.319 24.7577C175.136 24.9551 174.907 25.0538 174.632 25.0538C174.38 25.0538 174.071 24.9436 173.704 24.7232C173.338 24.5075 172.852 24.2894 172.247 24.069C171.638 23.8533 170.841 23.7454 169.856 23.7454C169.031 23.7454 168.259 23.8602 167.54 24.0897C166.816 24.3192 166.243 24.698 165.822 25.2259C165.396 25.7539 165.183 26.454 165.183 27.3263C165.183 28.1526 165.389 28.8298 165.801 29.3577C166.214 29.8857 166.752 30.3218 167.416 30.6661C168.081 31.0105 168.814 31.3249 169.615 31.6096C170.417 31.8988 171.219 32.2316 172.021 32.6081C172.822 32.9891 173.562 33.4551 174.24 34.006C174.914 34.5569 175.457 35.2731 175.869 36.1545C176.281 37.0406 176.487 38.1493 176.487 39.4806C176.487 41.1334 176.162 42.4946 175.512 43.5642C174.856 44.6293 173.968 45.4189 172.845 45.9331C171.723 46.4519 170.429 46.7113 168.962 46.7113ZM186.521 46.4358H185.456C183.6 46.4358 182.184 46.0226 181.209 45.1963C180.237 44.3699 179.752 43.0501 179.752 41.2367V23.5044C179.752 23.206 179.901 22.9649 180.198 22.7813C180.496 22.5977 180.817 22.5058 181.161 22.5058C181.527 22.5058 181.859 22.5977 182.157 22.7813C182.455 22.9649 182.604 23.206 182.604 23.5044V30.1152H186.933C187.208 30.1152 187.419 30.23 187.565 30.4596C187.717 30.6891 187.792 30.9531 187.792 31.2515C187.792 31.5499 187.717 31.807 187.565 32.0227C187.419 32.2431 187.208 32.3533 186.933 32.3533H182.604V41.2367C182.604 42.2237 182.814 42.9169 183.236 43.3163C183.662 43.7203 184.402 43.9223 185.456 43.9223H186.521C186.933 43.9223 187.242 44.0486 187.449 44.3011C187.655 44.5536 187.758 44.8405 187.758 45.1619C187.758 45.4832 187.655 45.7747 187.449 46.0364C187.242 46.3027 186.933 46.4358 186.521 46.4358ZM197.173 46.7113C195.684 46.7113 194.366 46.4289 193.221 45.8643C192.076 45.3042 191.169 44.5237 190.5 43.5229C189.835 42.5267 189.503 41.3629 189.503 40.0315V36.4162C189.503 35.2456 189.819 34.1667 190.452 33.1797C191.079 32.1926 191.909 31.4007 192.939 30.8039C193.97 30.2071 195.104 29.9086 196.341 29.9086C197.537 29.9086 198.632 30.1841 199.626 30.735C200.625 31.2859 201.426 32.0319 202.031 32.9731C202.641 33.9142 202.945 35.0045 202.945 36.2441C202.945 37.1622 202.796 37.821 202.499 38.2204C202.196 38.6244 201.816 38.8723 201.358 38.9642C200.9 39.056 200.421 39.1019 199.921 39.1019H192.362V40.1348C192.362 41.4203 192.82 42.4349 193.737 43.1786C194.653 43.9269 195.833 44.3011 197.276 44.3011C198.123 44.3011 198.797 44.1863 199.296 43.9568C199.805 43.7272 200.219 43.5023 200.54 43.2819C200.856 43.0661 201.142 42.9582 201.399 42.9582C201.651 42.9582 201.862 43.0317 202.031 43.1786C202.205 43.3301 202.338 43.5091 202.43 43.7157C202.517 43.9223 202.56 44.106 202.56 44.2666C202.56 44.565 202.345 44.9025 201.914 45.2789C201.479 45.66 200.854 45.9928 200.038 46.2774C199.227 46.5667 198.272 46.7113 197.173 46.7113ZM192.362 35.9342V37.1737H198.719C199.333 37.1737 199.738 37.098 199.935 36.9465C200.132 36.7996 200.231 36.508 200.231 36.0719C200.231 35.3833 200.064 34.7474 199.729 34.1644C199.399 33.5768 198.934 33.0993 198.334 32.732C197.743 32.3648 197.07 32.1811 196.314 32.1811C195.599 32.1811 194.946 32.3464 194.355 32.677C193.755 33.0121 193.272 33.4666 192.905 34.0404C192.543 34.6143 192.362 35.2455 192.362 35.9342ZM212.044 54.3207C210.692 54.3207 209.478 54.1324 208.402 53.756C207.325 53.375 206.473 52.8355 205.845 52.1377C205.213 51.4353 204.897 50.6135 204.897 49.6724C204.897 48.7083 205.179 47.9233 205.742 47.3173C206.301 46.7067 206.947 46.2407 207.68 45.9194C207.176 45.7357 206.759 45.4649 206.429 45.1068C206.095 44.7533 205.928 44.2552 205.928 43.6124C205.928 42.9697 206.088 42.4578 206.409 42.0768C206.729 41.7003 207.142 41.3629 207.646 41.0645C207.027 40.5595 206.546 39.9328 206.203 39.1845C205.859 38.4408 205.687 37.6213 205.687 36.7261V35.5899C205.687 34.4651 205.939 33.4781 206.443 32.6287C206.947 31.7794 207.664 31.1138 208.594 30.6317C209.52 30.1497 210.601 29.9086 211.838 29.9086C212.64 29.9086 213.379 30.028 214.057 30.2667C214.731 30.5101 215.32 30.8383 215.824 31.2515C216.19 30.494 216.575 29.9316 216.978 29.5643C217.377 29.1971 217.771 29.0134 218.16 29.0134C218.572 29.0134 218.882 29.1282 219.088 29.3577C219.294 29.5873 219.397 29.8283 219.397 30.0808C219.397 30.2644 219.34 30.4251 219.225 30.5628C219.111 30.7006 218.973 30.8039 218.813 30.8727C218.561 30.9416 218.27 31.0793 217.94 31.2859C217.606 31.4925 217.29 31.8368 216.992 32.3189C217.336 32.755 217.594 33.2554 217.768 33.8201C217.938 34.3802 218.023 34.9701 218.023 35.5899V36.7261C218.023 37.805 217.759 38.7805 217.232 39.6528C216.706 40.5251 215.973 41.2068 215.033 41.698C214.094 42.1939 213.018 42.4418 211.803 42.4418C210.864 42.4418 210.028 42.2696 209.295 41.9253C209.066 42.063 208.86 42.2168 208.677 42.3867C208.493 42.5611 208.402 42.7976 208.402 43.096C208.402 43.578 208.661 43.9223 209.178 44.1289C209.691 44.3355 210.349 44.4847 211.151 44.5765C211.952 44.6683 212.8 44.7716 213.693 44.8864C214.587 45.0012 215.434 45.2009 216.236 45.4855C217.038 45.7747 217.697 46.2178 218.215 46.8146C218.728 47.4114 218.985 48.2378 218.985 49.2937C218.985 50.4184 218.676 51.3527 218.057 52.0964C217.439 52.8447 216.609 53.4025 215.569 53.7698C214.525 54.137 213.35 54.3207 212.044 54.3207ZM211.975 52.3236C213.281 52.3236 214.312 52.0551 215.068 51.5179C215.824 50.9762 216.202 50.2577 216.202 49.3625C216.202 48.7198 216.007 48.2217 215.617 47.8682C215.228 47.5101 214.724 47.2461 214.106 47.0763C213.487 46.9018 212.841 46.787 212.168 46.7319C211.49 46.6723 210.876 46.608 210.326 46.5391C209.593 46.7687 208.958 47.113 208.422 47.5721C207.882 48.0312 207.611 48.628 207.611 49.3625C207.611 50.2577 208.012 50.9762 208.814 51.5179C209.616 52.0551 210.67 52.3236 211.975 52.3236ZM211.872 40.4792C212.926 40.4792 213.751 40.1234 214.346 39.4118C214.942 38.7002 215.239 37.805 215.239 36.7261V35.5899C215.239 34.534 214.942 33.6502 214.346 32.9386C213.751 32.227 212.914 31.8713 211.838 31.8713C210.761 31.8713 209.932 32.227 209.35 32.9386C208.764 33.6502 208.47 34.534 208.47 35.5899V36.6917C208.47 37.7705 208.768 38.6703 209.364 39.3911C209.959 40.1165 210.796 40.4792 211.872 40.4792ZM225.445 46.7113C224.162 46.7113 223.069 46.3371 222.167 45.5888C221.259 44.8451 220.806 43.6928 220.806 42.1319C220.806 40.8694 221.15 39.8869 221.837 39.1845C222.524 38.4867 223.47 38.0047 224.675 37.7384C225.875 37.4767 227.266 37.3459 228.846 37.3459H230.496V36.6228C230.496 35.9342 230.37 35.2616 230.118 34.6051C229.866 33.9532 229.472 33.4138 228.936 32.9868C228.395 32.5645 227.655 32.3533 226.716 32.3533C225.914 32.3533 225.28 32.4336 224.812 32.5943C224.341 32.755 223.967 32.9203 223.692 33.0901C223.417 33.2646 223.177 33.3518 222.971 33.3518C222.627 33.3518 222.364 33.1842 222.18 32.8491C221.997 32.5186 221.905 32.2041 221.905 31.9057C221.905 31.5384 222.157 31.2056 222.661 30.9072C223.165 30.6088 223.795 30.3677 224.551 30.1841C225.307 30.0005 226.052 29.9086 226.785 29.9086C228.388 29.9086 229.671 30.23 230.633 30.8727C231.595 31.5155 232.289 32.3418 232.715 33.3518C233.137 34.3618 233.348 35.4407 233.348 36.5884V45.4029C233.348 45.6783 233.217 45.9194 232.956 46.1259C232.69 46.3325 232.351 46.4358 231.939 46.4358C231.572 46.4358 231.263 46.3325 231.011 46.1259C230.759 45.9194 230.633 45.6783 230.633 45.4029V44.0256C230.038 44.7142 229.316 45.334 228.468 45.8849C227.621 46.4358 226.613 46.7113 225.445 46.7113ZM226.338 44.4044C227.002 44.4044 227.651 44.2207 228.283 43.8535C228.91 43.4862 229.437 43.0271 229.863 42.4762C230.285 41.9253 230.496 41.3973 230.496 40.8923V39.1019H229.293C228.331 39.1019 227.422 39.1593 226.565 39.274C225.703 39.3888 225.009 39.6344 224.483 40.0109C223.956 40.3919 223.692 40.9956 223.692 41.822C223.692 42.7172 223.944 43.3714 224.448 43.7846C224.952 44.1978 225.582 44.4044 226.338 44.4044ZM238.639 46.4358C238.227 46.4358 237.888 46.3256 237.622 46.1053C237.361 45.8895 237.23 45.6554 237.23 45.4029V31.1138C237.23 30.8153 237.361 30.5743 237.622 30.3907C237.888 30.2071 238.227 30.1152 238.639 30.1152C239.006 30.1152 239.315 30.2071 239.567 30.3907C239.819 30.5743 239.945 30.8153 239.945 31.1138V32.5255C240.311 31.8598 240.884 31.2561 241.663 30.7143C242.442 30.1772 243.404 29.9086 244.549 29.9086C245.649 29.9086 246.657 30.2116 247.573 30.8176C248.489 31.4282 249.222 32.227 249.772 33.2141C250.322 34.2011 250.597 35.3029 250.597 36.5195V45.4029C250.597 45.7472 250.448 46.0043 250.15 46.1741C249.852 46.3486 249.52 46.4358 249.154 46.4358C248.81 46.4358 248.489 46.3486 248.191 46.1741C247.894 46.0043 247.745 45.7472 247.745 45.4029V36.5195C247.745 35.8538 247.566 35.2111 247.209 34.5913C246.856 33.9716 246.382 33.4666 245.786 33.0764C245.191 32.6861 244.538 32.491 243.828 32.491C243.209 32.491 242.614 32.6563 242.041 32.9868C241.468 33.322 240.999 33.7811 240.632 34.3641C240.266 34.9517 240.082 35.6702 240.082 36.5195V45.4029C240.082 45.6554 239.938 45.8895 239.649 46.1053C239.365 46.3256 239.029 46.4358 238.639 46.4358ZM260.63 46.7113C259.416 46.7113 258.294 46.3945 257.263 45.761C256.232 45.132 255.407 44.3125 254.789 43.3026C254.17 42.2926 253.861 41.2022 253.861 40.0315V36.5195C253.861 35.3488 254.163 34.2631 254.768 33.2623C255.377 32.2661 256.198 31.4581 257.228 30.8383C258.259 30.2185 259.393 29.9086 260.63 29.9086C261.844 29.9086 262.967 30.2116 263.997 30.8176C265.028 31.4282 265.857 32.227 266.485 33.2141C267.117 34.2011 267.433 35.3029 267.433 36.5195V40.0315C267.433 41.1793 267.117 42.2627 266.485 43.2819C265.857 44.3057 265.028 45.132 263.997 45.761C262.967 46.3945 261.844 46.7113 260.63 46.7113ZM260.63 44.1289C261.363 44.1289 262.021 43.9338 262.602 43.5436C263.189 43.1533 263.665 42.6415 264.032 42.0079C264.398 41.379 264.582 40.7202 264.582 40.0315V36.5195C264.582 35.8538 264.403 35.2111 264.046 34.5913C263.693 33.9716 263.219 33.4666 262.623 33.0764C262.027 32.6861 261.363 32.491 260.63 32.491C259.897 32.491 259.233 32.6861 258.637 33.0764C258.042 33.4666 257.572 33.9716 257.228 34.5913C256.885 35.2111 256.713 35.8538 256.713 36.5195V40.0315C256.713 40.7202 256.885 41.379 257.228 42.0079C257.572 42.6415 258.042 43.1533 258.637 43.5436C259.233 43.9338 259.897 44.1289 260.63 44.1289ZM278.422 46.6424C277.025 46.6424 275.772 46.3945 274.663 45.8987C273.55 45.4075 272.668 44.611 272.017 43.5091C271.362 42.4073 271.034 40.9497 271.034 39.1363V28.7724C271.034 26.959 271.362 25.5014 272.017 24.3996C272.668 23.2978 273.55 22.499 274.663 22.0031C275.772 21.5119 277.002 21.2663 278.353 21.2663C279.865 21.2663 281.178 21.5234 282.291 22.0376C283.4 22.5563 284.27 23.2748 284.902 24.193C285.53 25.1112 285.844 26.19 285.844 27.4296C285.844 27.9805 285.718 28.3523 285.466 28.5452C285.214 28.7426 284.859 28.8413 284.401 28.8413C284.011 28.8413 283.679 28.7655 283.404 28.614C283.129 28.4671 282.981 28.21 282.958 27.8427C282.866 27.0393 282.66 26.3438 282.339 25.7562C282.018 25.1732 281.537 24.7164 280.896 24.3858C280.255 24.0507 279.43 23.8831 278.422 23.8831C277.002 23.8831 275.898 24.2779 275.11 25.0676C274.317 25.8618 273.921 27.0967 273.921 28.7724V39.1363C273.921 40.812 274.317 42.0446 275.11 42.8343C275.898 43.6285 277.002 44.0256 278.422 44.0256C279.842 44.0256 280.953 43.6285 281.755 42.8343C282.557 42.0446 282.958 40.812 282.958 39.1363V35.6243H278.869C278.548 35.6243 278.303 35.498 278.133 35.2455C277.959 34.9931 277.872 34.7176 277.872 34.4192C277.872 34.1208 277.959 33.8453 278.133 33.5928C278.303 33.3403 278.548 33.2141 278.869 33.2141H284.847C285.168 33.2141 285.416 33.3174 285.59 33.524C285.759 33.7306 285.844 33.9831 285.844 34.2815V39.1363C285.844 40.9497 285.519 42.4073 284.868 43.5091C284.213 44.611 283.324 45.4075 282.202 45.8987C281.079 46.3945 279.819 46.6424 278.422 46.6424ZM290.964 46.4358C290.574 46.4358 290.249 46.3256 289.988 46.1053C289.722 45.8895 289.589 45.6554 289.589 45.4029V31.1138C289.589 30.8153 289.722 30.5743 289.988 30.3907C290.249 30.2071 290.574 30.1152 290.964 30.1152C291.353 30.1152 291.674 30.2071 291.926 30.3907C292.178 30.5743 292.304 30.8153 292.304 31.1138V32.732C292.556 32.25 292.899 31.7955 293.335 31.3685C293.77 30.9462 294.281 30.5973 294.867 30.3218C295.449 30.0464 296.095 29.9086 296.805 29.9086H297.973C298.271 29.9086 298.53 30.0349 298.75 30.2874C298.965 30.5399 299.073 30.8498 299.073 31.217C299.073 31.5614 298.965 31.8598 298.75 32.1123C298.53 32.3648 298.271 32.491 297.973 32.491H296.805C296.072 32.491 295.373 32.6976 294.709 33.1108C294.045 33.524 293.502 34.1047 293.08 34.853C292.654 35.5968 292.441 36.4966 292.441 37.5525V45.4029C292.441 45.6554 292.299 45.8895 292.015 46.1053C291.727 46.3256 291.376 46.4358 290.964 46.4358ZM304.33 46.7113C303.047 46.7113 301.952 46.3371 301.045 45.5888C300.143 44.8451 299.691 43.6928 299.691 42.1319C299.691 40.8694 300.035 39.8869 300.722 39.1845C301.409 38.4867 302.353 38.0047 303.553 37.7384C304.758 37.4767 306.151 37.3459 307.732 37.3459H309.381V36.6228C309.381 35.9342 309.255 35.2616 309.003 34.6051C308.751 33.9532 308.355 33.4138 307.814 32.9868C307.278 32.5645 306.541 32.3533 305.601 32.3533C304.8 32.3533 304.163 32.4336 303.691 32.5943C303.224 32.755 302.853 32.9203 302.578 33.0901C302.303 33.2646 302.062 33.3518 301.856 33.3518C301.512 33.3518 301.249 33.1842 301.066 32.8491C300.882 32.5186 300.791 32.2041 300.791 31.9057C300.791 31.5384 301.043 31.2056 301.547 30.9072C302.051 30.6088 302.681 30.3677 303.437 30.1841C304.193 30.0005 304.937 29.9086 305.67 29.9086C307.274 29.9086 308.556 30.23 309.518 30.8727C310.481 31.5155 311.172 32.3418 311.594 33.3518C312.02 34.3618 312.233 35.4407 312.233 36.5884V45.4029C312.233 45.6783 312.1 45.9194 311.834 46.1259C311.573 46.3325 311.237 46.4358 310.824 46.4358C310.458 46.4358 310.148 46.3325 309.896 46.1259C309.644 45.9194 309.518 45.6783 309.518 45.4029V44.0256C308.923 44.7142 308.201 45.334 307.354 45.8849C306.506 46.4358 305.498 46.7113 304.33 46.7113ZM305.223 44.4044C305.888 44.4044 306.534 44.2207 307.161 43.8535C307.794 43.4862 308.32 43.0271 308.742 42.4762C309.168 41.9253 309.381 41.3973 309.381 40.8923V39.1019H308.178C307.216 39.1019 306.305 39.1593 305.443 39.274C304.587 39.3888 303.895 39.6344 303.368 40.0109C302.841 40.3919 302.578 40.9956 302.578 41.822C302.578 42.7172 302.83 43.3714 303.334 43.7846C303.838 44.1978 304.467 44.4044 305.223 44.4044ZM317.525 54.3207C317.135 54.3207 316.808 54.2128 316.542 53.997C316.281 53.7766 316.15 53.5402 316.15 53.2877V31.1138C316.15 30.8153 316.281 30.5743 316.542 30.3907C316.808 30.2071 317.135 30.1152 317.525 30.1152C317.914 30.1152 318.235 30.2071 318.487 30.3907C318.739 30.5743 318.865 30.8153 318.865 31.1138V32.5255C319.254 31.8598 319.838 31.2561 320.617 30.7143C321.396 30.1772 322.347 29.9086 323.469 29.9086C324.614 29.9086 325.657 30.2116 326.596 30.8176C327.535 31.4282 328.279 32.227 328.829 33.2141C329.379 34.2011 329.654 35.3029 329.654 36.5195V40.0315C329.654 41.1793 329.372 42.2627 328.809 43.2819C328.25 44.3057 327.512 45.132 326.596 45.761C325.68 46.3945 324.672 46.7113 323.572 46.7113C322.541 46.7113 321.613 46.4404 320.789 45.8987C319.964 45.3616 319.369 44.7372 319.002 44.0256V53.2877C319.002 53.5402 318.858 53.7766 318.569 53.997C318.285 54.2128 317.937 54.3207 317.525 54.3207ZM322.885 44.1289C323.572 44.1289 324.213 43.9338 324.809 43.5436C325.405 43.1533 325.886 42.6369 326.252 41.9941C326.619 41.3514 326.802 40.6972 326.802 40.0315V36.5195C326.802 35.8538 326.619 35.2111 326.252 34.5913C325.886 33.9716 325.405 33.4666 324.809 33.0764C324.213 32.6861 323.549 32.491 322.816 32.491C322.198 32.491 321.595 32.6563 321.009 32.9868C320.427 33.322 319.946 33.7811 319.566 34.3641C319.19 34.9517 319.002 35.6702 319.002 36.5195V40.9612C319.002 41.2596 319.167 41.6613 319.497 42.1663C319.831 42.6713 320.289 43.1235 320.871 43.5229C321.458 43.9269 322.129 44.1289 322.885 44.1289ZM334.526 46.4358C334.114 46.4358 333.777 46.3256 333.516 46.1053C333.25 45.8895 333.117 45.6554 333.117 45.4029V21.2663C333.117 20.9679 333.25 20.7269 333.516 20.5432C333.777 20.3596 334.114 20.2678 334.526 20.2678C334.916 20.2678 335.255 20.3596 335.543 20.5432C335.827 20.7269 335.969 20.9679 335.969 21.2663V32.5255C336.336 31.8598 336.893 31.2561 337.639 30.7143C338.382 30.1772 339.314 29.9086 340.436 29.9086C341.536 29.9086 342.544 30.2116 343.46 30.8176C344.376 31.4282 345.109 32.227 345.659 33.2141C346.209 34.2011 346.484 35.3029 346.484 36.5195V45.4029C346.484 45.7472 346.335 46.0043 346.037 46.1741C345.739 46.3486 345.407 46.4358 345.041 46.4358C344.697 46.4358 344.376 46.3486 344.079 46.1741C343.781 46.0043 343.632 45.7472 343.632 45.4029V36.5195C343.632 35.8538 343.449 35.2111 343.082 34.5913C342.716 33.9716 342.241 33.4666 341.66 33.0764C341.073 32.6861 340.425 32.491 339.715 32.491C339.096 32.491 338.501 32.6563 337.928 32.9868C337.355 33.322 336.886 33.7811 336.519 34.3641C336.153 34.9517 335.969 35.6702 335.969 36.5195V45.4029C335.969 45.6554 335.827 45.8895 335.543 46.1053C335.255 46.3256 334.916 46.4358 334.526 46.4358ZM357.411 46.7113C355.922 46.7113 354.604 46.4289 353.459 45.8643C352.314 45.3042 351.409 44.5237 350.745 43.5229C350.08 42.5267 349.748 41.3629 349.748 40.0315V36.4162C349.748 35.2456 350.062 34.1667 350.69 33.1797C351.322 32.1926 352.153 31.4007 353.184 30.8039C354.215 30.2071 355.349 29.9086 356.586 29.9086C357.777 29.9086 358.87 30.1841 359.864 30.735C360.863 31.2859 361.664 32.0319 362.269 32.9731C362.878 33.9142 363.183 35.0045 363.183 36.2441C363.183 37.1622 363.034 37.821 362.736 38.2204C362.439 38.6244 362.061 38.8723 361.603 38.9642C361.144 39.056 360.663 39.1019 360.159 39.1019H352.6V40.1348C352.6 41.4203 353.058 42.4349 353.974 43.1786C354.891 43.9269 356.07 44.3011 357.514 44.3011C358.361 44.3011 359.037 44.1863 359.541 43.9568C360.045 43.7272 360.457 43.5023 360.778 43.2819C361.099 43.0661 361.385 42.9582 361.637 42.9582C361.889 42.9582 362.1 43.0317 362.269 43.1786C362.443 43.3301 362.576 43.5091 362.668 43.7157C362.759 43.9223 362.805 44.106 362.805 44.2666C362.805 44.565 362.588 44.9025 362.152 45.2789C361.717 45.66 361.092 45.9928 360.276 46.2774C359.465 46.5667 358.51 46.7113 357.411 46.7113ZM352.6 35.9342V37.1737H358.957C359.575 37.1737 359.983 37.098 360.18 36.9465C360.372 36.7996 360.469 36.508 360.469 36.0719C360.469 35.3833 360.301 34.7474 359.967 34.1644C359.637 33.5768 359.174 33.0993 358.579 32.732C357.983 32.3648 357.307 32.1811 356.551 32.1811C355.841 32.1811 355.189 32.3464 354.593 32.677C353.997 33.0121 353.516 33.4666 353.15 34.0404C352.783 34.6143 352.6 35.2455 352.6 35.9342ZM367.719 46.4358C367.329 46.4358 367.002 46.3256 366.736 46.1053C366.475 45.8895 366.344 45.6554 366.344 45.4029V31.1138C366.344 30.8153 366.475 30.5743 366.736 30.3907C367.002 30.2071 367.329 30.1152 367.719 30.1152C368.108 30.1152 368.429 30.2071 368.681 30.3907C368.933 30.5743 369.059 30.8153 369.059 31.1138V32.732C369.311 32.25 369.654 31.7955 370.09 31.3685C370.525 30.9462 371.033 30.5973 371.615 30.3218C372.202 30.0464 372.85 29.9086 373.56 29.9086H374.728C375.026 29.9086 375.283 30.0349 375.498 30.2874C375.718 30.5399 375.828 30.8498 375.828 31.217C375.828 31.5614 375.718 31.8598 375.498 32.1123C375.283 32.3648 375.026 32.491 374.728 32.491H373.56C372.827 32.491 372.128 32.6976 371.464 33.1108C370.8 33.524 370.255 34.1047 369.828 34.853C369.407 35.5968 369.196 36.4966 369.196 37.5525V45.4029C369.196 45.6554 369.052 45.8895 368.763 46.1053C368.479 46.3256 368.131 46.4358 367.719 46.4358Z" fill="white"/>
</g>
</g>
</g>
</g>
<g clip-path="url(#clip7_5_275)">
<g clip-path="url(#clip8_5_275)">
<path d="M43.4509 71.6896C48.1006 71.6886 52.6443 70.2977 56.5007 67.6947C60.3571 65.0916 63.3508 61.3949 65.0989 57.0774H71.5919C71.825 57.0784 72.056 57.033 72.2714 56.9439C72.4869 56.8547 72.6825 56.7235 72.8469 56.558L76.9392 52.4573C77.0014 52.3936 77.0757 52.3431 77.1577 52.3085C77.2396 52.274 77.3277 52.2562 77.4166 52.2562C77.5055 52.2562 77.5936 52.274 77.6755 52.3085C77.7575 52.3431 77.8318 52.3936 77.894 52.4573L81.5225 56.0932C81.9571 56.5273 82.5458 56.771 83.1594 56.771C83.773 56.771 84.3616 56.5273 84.7963 56.0932L88.4248 52.4573C88.487 52.3936 88.5613 52.3431 88.6433 52.3085C88.7253 52.274 88.8133 52.2562 88.9022 52.2562C88.9911 52.2562 89.0792 52.274 89.1611 52.3085C89.2431 52.3431 89.3174 52.3936 89.3796 52.4573L93.0081 56.0932C93.4427 56.5273 94.0314 56.771 94.645 56.771C95.2586 56.771 95.8472 56.5273 96.2819 56.0932L99.9104 52.4573C99.9726 52.3936 100.047 52.3431 100.129 52.3085C100.211 52.274 100.299 52.2562 100.388 52.2562C100.477 52.2562 100.565 52.274 100.647 52.3085C100.729 52.3431 100.803 52.3936 100.865 52.4573L104.957 56.558C105.286 56.889 105.733 57.0758 106.199 57.0774H111.655C112.053 57.0775 112.436 56.9203 112.719 56.64L120.358 48.9853C120.55 48.7931 120.657 48.5326 120.657 48.2609C120.657 47.9892 120.55 47.7286 120.358 47.5364L112.719 39.8818C112.579 39.7423 112.413 39.6319 112.231 39.5569C112.048 39.4818 111.852 39.4436 111.655 39.4444H65.0989C63.501 35.512 60.8661 32.089 57.4762 29.5416C54.0864 26.9943 50.0691 25.4186 45.8543 24.9831C41.6395 24.5475 37.3858 25.2686 33.5485 27.0691C29.7112 28.8696 26.4347 31.6818 24.0696 35.2046C21.7045 38.7275 20.3398 42.8285 20.1216 47.0688C19.9034 51.309 20.8399 55.5289 22.8309 59.2769C24.8218 63.0249 27.7923 66.1598 31.4245 68.3463C35.0566 70.5327 39.2137 71.6884 43.4509 71.6896ZM32.811 43.1487C33.8229 43.146 34.8127 43.445 35.6546 44.0075C36.4965 44.5701 37.1525 45.3708 37.5391 46.3079C37.9256 47.2449 38.0254 48.2761 37.8256 49.2701C37.6258 50.2641 37.1356 51.1762 36.4172 51.8903C35.6988 52.6044 34.7847 53.0883 33.7911 53.2804C32.7975 53.4726 31.7694 53.3643 30.8373 52.9694C29.9053 52.5745 29.1116 51.9107 28.557 51.0626C28.0025 50.2144 27.7121 49.2201 27.7229 48.2062C27.7373 46.8622 28.2792 45.578 29.2315 44.6314C30.1838 43.6849 31.4697 43.1522 32.811 43.1487ZM153.11 5.42223V72.6737C153.105 77.1084 151.554 81.402 148.724 84.8117C145.894 88.2213 141.964 90.5326 137.614 91.3456L72.7514 101.966C71.9329 101.97 71.1241 101.788 70.385 101.436C69.6459 101.083 68.9955 100.568 68.4818 99.9297C67.6703 98.8946 67.2414 97.6099 67.2678 96.2938V69.1334C67.2678 68.731 67.4273 68.3451 67.7113 68.0606C67.9952 67.776 68.3804 67.6162 68.7819 67.6162H76.7346C77.1361 67.6162 77.5213 67.776 77.8052 68.0606C78.0892 68.3451 78.2487 68.731 78.2487 69.1334V87.6003L118.271 67.7529C119.107 67.3366 120.035 67.1422 120.967 67.1882C121.9 67.2341 122.804 67.5189 123.595 68.0154C124.386 68.5118 125.037 69.2032 125.485 70.0236C125.934 70.844 126.164 71.7658 126.155 72.701C126.16 73.8092 126.395 74.9043 126.845 75.9168C127.294 76.9292 127.949 77.837 128.767 78.5824C129.586 79.3279 130.55 79.8948 131.598 80.2471C132.647 80.5994 133.757 80.7295 134.858 80.6291C136.871 80.3924 138.725 79.4156 140.061 77.8878C141.396 76.3601 142.119 74.3901 142.088 72.3593V10.9172H78.235V27.32C78.235 27.7224 78.0755 28.1083 77.7916 28.3928C77.5076 28.6774 77.1225 28.8372 76.7209 28.8372H68.7683C68.3667 28.8372 67.9816 28.6774 67.6976 28.3928C67.4137 28.1083 67.2542 27.7224 67.2542 27.32V5.42223C67.2542 3.97213 67.829 2.58142 68.8523 1.55605C69.8755 0.530677 71.2634 -0.0453723 72.7105 -0.0453723H147.626C148.345 -0.0489739 149.057 0.0897915 149.723 0.362951C150.388 0.636111 150.992 1.03828 151.502 1.54635C152.012 2.05443 152.416 2.65839 152.692 3.32354C152.968 3.98868 153.11 4.70191 153.11 5.42223Z" fill="white"/>
</g>
</g>
</g>
</g>
</g>
<defs>
<clipPath id="clip0_5_275">
<rect width="377" height="102" fill="white"/>
</clipPath>
<clipPath id="clip1_5_275">
<rect width="356.283" height="102.012" fill="white" transform="translate(20.0906 -0.0454407)"/>
</clipPath>
<clipPath id="clip2_5_275">
<rect width="356.283" height="102.012" fill="white" transform="translate(20.0906 -0.0454407)"/>
</clipPath>
<clipPath id="clip3_5_275">
<rect width="215.241" height="61.3854" fill="white" transform="translate(161.132 20.2678)"/>
</clipPath>
<clipPath id="clip4_5_275">
<rect width="215.241" height="61.3854" fill="white" transform="translate(161.132 20.2678)"/>
</clipPath>
<clipPath id="clip5_5_275">
<rect width="214.17" height="34.0529" fill="white" transform="translate(161.668 20.2678)"/>
</clipPath>
<clipPath id="clip6_5_275">
<rect width="214.17" height="34.0529" fill="white" transform="translate(161.668 20.2678)"/>
</clipPath>
<clipPath id="clip7_5_275">
<rect width="133.019" height="102.012" fill="white" transform="translate(20.0906 -0.0454407)"/>
</clipPath>
<clipPath id="clip8_5_275">
<rect width="133.019" height="102.012" fill="white" transform="translate(20.0906 -0.0454407)"/>
</clipPath>
</defs>
</svg>
